<svg width="400" height="400" viewBox="0 0 400 400" fill="none" xmlns="http://www.w3.org/2000/svg">
<rect width="400" height="400" fill="black"/>
<path d="M138.209 276.119L138.171 279.083L179.645 279.092L180.409 220.798C180.48 215.364 186.919 213.389 188.992 218.33L193.547 229.693C199.76 245.009 202.98 260.324 202.773 276.133L202.734 279.097L244.208 279.106L244.952 222.294C245.024 216.86 251.463 214.885 253.536 219.826L258.084 231.683C263.882 246.011 266.675 261.326 266.481 276.146L266.442 279.111L307.916 279.119L308.66 222.308L301.903 215.884C274.474 188.213 260.357 156.099 260.797 122.506L260.829 120.036L219.355 120.027L218.611 176.839C218.54 182.273 212.1 184.248 210.027 179.307L205.479 167.45C199.681 153.122 196.888 137.807 197.083 122.986L197.115 120.516L155.641 120.507L154.883 178.307C154.812 183.741 148.373 185.716 146.3 180.775L141.745 169.412C135.532 154.096 132.312 138.781 132.519 122.973L132.552 120.502L91.0774 120.494L90.3331 177.305L97.0902 183.729C124.533 210.412 138.643 243.02 138.209 276.119Z" fill="#ACF3A6"/>
</svg>
