<svg width="1500" height="500" viewBox="0 0 1500 500" fill="none" xmlns="http://www.w3.org/2000/svg">
<g clip-path="url(#clip0_471_7581)">
<rect width="1500" height="500" fill="#060606"/>
<mask id="mask0_471_7581" style="mask-type:alpha" maskUnits="userSpaceOnUse" x="-152" y="-1" width="1504" height="501">
<rect x="-151.66" y="-0.0820312" width="1503.16" height="500.081" fill="#D9D9D9"/>
</mask>
<g mask="url(#mask0_471_7581)">
<path d="M600.003 1379.08C969.765 1379.08 1269.52 1079.25 1269.52 709.404C1269.52 339.554 969.765 39.7305 600.003 39.7305C230.241 39.7305 -69.5098 339.554 -69.5098 709.404C-69.5098 1079.25 230.241 1379.08 600.003 1379.08Z" fill="#060606" stroke="#717172" stroke-width="1.04398" stroke-miterlimit="10"/>
<path d="M600.785 1379.08C937.359 1379.08 1210.21 1079.25 1210.21 709.404C1210.21 339.554 937.359 39.7305 600.785 39.7305C264.211 39.7305 -8.63672 339.554 -8.63672 709.404C-8.63672 1079.25 264.211 1379.08 600.785 1379.08Z" fill="#060606" stroke="#717172" stroke-width="1.04398" stroke-miterlimit="10"/>
<path d="M600.525 1379.08C885.063 1379.08 1115.73 1079.25 1115.73 709.404C1115.73 339.554 885.063 39.7305 600.525 39.7305C315.986 39.7305 85.3223 339.554 85.3223 709.404C85.3223 1079.25 315.986 1379.08 600.525 1379.08Z" fill="#060606" stroke="#717172" stroke-width="1.04398" stroke-miterlimit="10"/>
<path d="M599.742 1379.08C832.533 1379.08 1021.25 1079.25 1021.25 709.404C1021.25 339.554 832.533 39.7305 599.742 39.7305C366.951 39.7305 178.236 339.554 178.236 709.404C178.236 1079.25 366.951 1379.08 599.742 1379.08Z" fill="#060606" stroke="#717172" stroke-width="1.04398" stroke-miterlimit="10"/>
<path d="M598.436 1379.08C779.768 1379.08 926.767 1079.25 926.767 709.404C926.767 339.554 779.768 39.7305 598.436 39.7305C417.104 39.7305 270.105 339.554 270.105 709.404C270.105 1079.25 417.104 1379.08 598.436 1379.08Z" fill="#060606" stroke="#717172" stroke-width="1.04398" stroke-miterlimit="10"/>
<path d="M600.002 1379.08C729.731 1379.08 834.897 1079.25 834.897 709.404C834.897 339.554 729.731 39.7305 600.002 39.7305C470.273 39.7305 365.107 339.554 365.107 709.404C365.107 1079.25 470.273 1379.08 600.002 1379.08Z" fill="#060606" stroke="#717172" stroke-width="1.04398" stroke-miterlimit="10"/>
<path d="M598.157 1379.08C676.128 1379.08 739.337 1079.25 739.337 709.404C739.337 339.554 676.128 39.7305 598.157 39.7305C520.185 39.7305 456.977 339.554 456.977 709.404C456.977 1079.25 520.185 1379.08 598.157 1379.08Z" fill="#060606" stroke="#717172" stroke-width="1.04398" stroke-miterlimit="10"/>
<path d="M599.155 1379.08C625.209 1379.08 646.33 1079.25 646.33 709.404C646.33 339.554 625.209 39.7305 599.155 39.7305C573.101 39.7305 551.98 339.554 551.98 709.404C551.98 1079.25 573.101 1379.08 599.155 1379.08Z" fill="#060606" stroke="#717172" stroke-width="1.04398" stroke-miterlimit="10"/>
<path fill-rule="evenodd" clip-rule="evenodd" d="M461.69 203.005C471.781 194.951 477.858 180.557 477.858 161.017C477.858 116.903 446.888 63.2619 408.685 41.2052C388.574 29.5941 370.467 29.0504 357.828 37.5748L357.824 37.5688L357.567 37.7525C357.248 37.9726 356.932 38.1985 356.619 38.4302L344.418 47.1509L346.39 50.3489C341.983 58.3144 339.512 68.6819 339.512 81.1423C339.512 125.256 370.482 178.897 408.685 200.954C421.949 208.611 434.34 211.455 444.867 210.059L447.013 213.539L461.728 203.065L461.69 203.005Z" fill="#ACF3A6"/>
<path d="M461.69 203.005L461.202 202.393L460.655 202.83L461.027 203.422L461.69 203.005ZM408.685 41.2052L408.293 41.8833L408.685 41.2052ZM357.828 37.5748L357.165 37.9911L357.595 38.6764L358.266 38.224L357.828 37.5748ZM357.824 37.5688L358.487 37.1525L358.045 36.4484L357.369 36.9318L357.824 37.5688ZM357.567 37.7525L358.011 38.3976L358.023 38.3896L357.567 37.7525ZM356.619 38.4302L357.074 39.0673L357.085 39.0591L356.619 38.4302ZM344.418 47.1509L343.963 46.5139L343.367 46.9393L343.751 47.5619L344.418 47.1509ZM346.39 50.3489L347.075 50.7279L347.296 50.3275L347.056 49.9379L346.39 50.3489ZM339.512 81.1423H338.729H339.512ZM408.685 200.954L408.293 201.632L408.685 200.954ZM444.867 210.059L445.533 209.648L445.267 209.216L444.764 209.282L444.867 210.059ZM447.013 213.539L446.347 213.95L446.786 214.662L447.467 214.177L447.013 213.539ZM461.728 203.065L462.182 203.703L462.784 203.275L462.391 202.649L461.728 203.065ZM477.075 161.017C477.075 180.41 471.045 194.536 461.202 202.393L462.179 203.617C472.516 195.365 478.641 180.705 478.641 161.017H477.075ZM408.293 41.8833C427.248 52.8268 444.452 71.637 456.919 93.2311C469.387 114.825 477.075 139.13 477.075 161.017H478.641C478.641 138.79 470.844 114.217 458.276 92.4481C445.707 70.6791 428.325 51.6404 409.076 40.5272L408.293 41.8833ZM358.266 38.224C370.567 29.9274 388.332 30.3588 408.293 41.8833L409.076 40.5272C388.815 28.8295 370.367 28.1734 357.39 36.9257L358.266 38.224ZM358.491 37.1585L358.487 37.1525L357.161 37.9851L357.165 37.9911L358.491 37.1585ZM357.369 36.9318L357.112 37.1155L358.023 38.3896L358.28 38.2058L357.369 36.9318ZM357.085 39.0591C357.391 38.8329 357.699 38.6123 358.011 38.3975L357.123 37.1076C356.796 37.3329 356.472 37.5641 356.153 37.8013L357.085 39.0591ZM356.164 37.7932L343.963 46.5139L344.873 47.7879L357.074 39.0672L356.164 37.7932ZM343.751 47.5619L345.723 50.7598L347.056 49.9379L345.084 46.74L343.751 47.5619ZM340.295 81.1423C340.295 68.7811 342.746 58.5514 347.075 50.7279L345.705 49.9698C341.219 58.0775 338.729 68.5827 338.729 81.1423H340.295ZM409.076 200.276C390.122 189.332 372.917 170.522 360.45 148.928C347.983 127.334 340.295 103.029 340.295 81.1423H338.729C338.729 103.369 346.526 127.942 359.094 149.711C371.662 171.48 389.045 190.518 408.293 201.632L409.076 200.276ZM444.764 209.282C434.455 210.65 422.237 207.874 409.076 200.276L408.293 201.632C421.66 209.349 434.226 212.26 444.97 210.835L444.764 209.282ZM444.2 210.469L446.347 213.95L447.68 213.128L445.533 209.648L444.2 210.469ZM447.467 214.177L462.182 203.703L461.274 202.427L446.559 212.901L447.467 214.177ZM462.391 202.649L462.353 202.589L461.027 203.422L461.065 203.481L462.391 202.649Z" fill="#060606"/>
<mask id="mask1_471_7581" style="mask-type:alpha" maskUnits="userSpaceOnUse" x="338" y="30" width="141" height="185">
<path fill-rule="evenodd" clip-rule="evenodd" d="M461.69 203.003C471.781 194.949 477.858 180.555 477.858 161.015C477.858 116.901 446.888 63.2599 408.685 41.2033C388.574 29.5922 370.467 29.0485 357.828 37.573L357.824 37.5667L357.552 37.7614C357.242 37.9744 356.937 38.1929 356.634 38.4169L344.418 47.1488L346.39 50.3471C341.983 58.3126 339.512 68.68 339.512 81.1404C339.512 125.254 370.482 178.895 408.685 200.952C421.948 208.609 434.34 211.453 444.867 210.057L447.013 213.537L461.728 203.063L461.69 203.003Z" fill="#B0F127"/>
<path d="M461.69 203.003L461.202 202.392L460.655 202.828L461.027 203.42L461.69 203.003ZM408.685 41.2033L409.076 40.5252L408.685 41.2033ZM357.828 37.573L357.165 37.9893L357.595 38.6745L358.266 38.2221L357.828 37.573ZM357.824 37.5667L358.487 37.1504L358.045 36.4462L357.369 36.9297L357.824 37.5667ZM357.552 37.7614L357.996 38.4061L358.007 38.3984L357.552 37.7614ZM356.634 38.4169L357.09 39.054L357.1 39.0461L356.634 38.4169ZM344.418 47.1488L343.962 46.5118L343.367 46.9371L343.751 47.5597L344.418 47.1488ZM346.39 50.3471L347.075 50.7261L347.296 50.3257L347.056 49.9361L346.39 50.3471ZM339.512 81.1404H340.295H339.512ZM408.685 200.952L409.076 200.274L408.685 200.952ZM444.867 210.057L445.533 209.646L445.267 209.214L444.764 209.28L444.867 210.057ZM447.013 213.537L446.346 213.948L446.785 214.66L447.467 214.175L447.013 213.537ZM461.728 203.063L462.182 203.701L462.784 203.272L462.391 202.647L461.728 203.063ZM477.075 161.015C477.075 180.408 471.045 194.534 461.202 202.392L462.179 203.615C472.516 195.364 478.641 180.703 478.641 161.015H477.075ZM408.293 41.8814C427.248 52.8248 444.452 71.6351 456.919 93.2292C469.387 114.823 477.075 139.128 477.075 161.015H478.641C478.641 138.788 470.844 114.215 458.276 92.4462C445.707 70.6771 428.325 51.6384 409.076 40.5252L408.293 41.8814ZM358.266 38.2221C370.567 29.9255 388.332 30.3568 408.293 41.8814L409.076 40.5252C388.815 28.8275 370.367 28.1714 357.39 36.9238L358.266 38.2221ZM358.491 37.1566L358.487 37.1504L357.161 37.983L357.165 37.9893L358.491 37.1566ZM357.369 36.9297L357.096 37.1244L358.007 38.3984L358.279 38.2037L357.369 36.9297ZM357.1 39.0461C357.396 38.8274 357.694 38.614 357.996 38.4061L357.107 37.1167C356.791 37.3348 356.478 37.5585 356.168 37.7878L357.1 39.0461ZM356.179 37.7799L343.962 46.5118L344.873 47.7858L357.09 39.0539L356.179 37.7799ZM343.751 47.5597L345.723 50.758L347.056 49.9361L345.084 46.7378L343.751 47.5597ZM340.295 81.1404C340.295 68.7792 342.746 58.5495 347.075 50.7261L345.704 49.968C341.219 58.0757 338.729 68.5808 338.729 81.1404H340.295ZM409.076 200.274C390.122 189.33 372.917 170.52 360.45 148.926C347.983 127.332 340.295 103.027 340.295 81.1404H338.729C338.729 103.367 346.526 127.94 359.094 149.709C371.662 171.478 389.045 190.517 408.293 201.63L409.076 200.274ZM444.764 209.28C434.455 210.648 422.237 207.872 409.076 200.274L408.293 201.63C421.66 209.347 434.226 212.258 444.97 210.833L444.764 209.28ZM444.2 210.468L446.346 213.948L447.679 213.126L445.533 209.646L444.2 210.468ZM447.467 214.175L462.182 203.701L461.273 202.425L446.559 212.899L447.467 214.175ZM462.391 202.647L462.353 202.587L461.027 203.42L461.064 203.479L462.391 202.647Z" fill="#060606"/>
</mask>
<g mask="url(#mask1_471_7581)">
<rect width="168.966" height="72.6526" transform="matrix(0.866025 -0.5 2.70279e-08 1 414.15 201.416)" fill="#ACF3A6"/>
</g>
<path d="M461.69 203.005L461.202 202.393L460.655 202.83L461.027 203.422L461.69 203.005ZM408.685 41.2052L408.293 41.8833L408.685 41.2052ZM357.828 37.5748L357.165 37.9911L357.595 38.6764L358.266 38.224L357.828 37.5748ZM357.824 37.5688L358.487 37.1525L358.045 36.4484L357.369 36.9318L357.824 37.5688ZM357.567 37.7525L358.011 38.3976L358.023 38.3896L357.567 37.7525ZM356.619 38.4302L357.074 39.0673L357.085 39.0591L356.619 38.4302ZM344.418 47.1509L343.963 46.5139L343.367 46.9393L343.751 47.5619L344.418 47.1509ZM346.39 50.3489L347.075 50.7279L347.296 50.3275L347.056 49.9379L346.39 50.3489ZM339.512 81.1423H338.729H339.512ZM408.685 200.954L408.293 201.632L408.685 200.954ZM444.867 210.059L445.533 209.648L445.267 209.216L444.764 209.282L444.867 210.059ZM447.013 213.539L446.347 213.95L446.786 214.662L447.467 214.177L447.013 213.539ZM461.728 203.065L462.182 203.703L462.784 203.275L462.391 202.649L461.728 203.065ZM477.075 161.017C477.075 180.41 471.045 194.536 461.202 202.393L462.179 203.617C472.516 195.365 478.641 180.705 478.641 161.017H477.075ZM408.293 41.8833C427.248 52.8268 444.452 71.637 456.919 93.2311C469.387 114.825 477.075 139.13 477.075 161.017H478.641C478.641 138.79 470.844 114.217 458.276 92.4481C445.707 70.6791 428.325 51.6404 409.076 40.5272L408.293 41.8833ZM358.266 38.224C370.567 29.9274 388.332 30.3588 408.293 41.8833L409.076 40.5272C388.815 28.8295 370.367 28.1734 357.39 36.9257L358.266 38.224ZM358.491 37.1585L358.487 37.1525L357.161 37.9851L357.165 37.9911L358.491 37.1585ZM357.369 36.9318L357.112 37.1155L358.023 38.3896L358.28 38.2058L357.369 36.9318ZM357.085 39.0591C357.391 38.8329 357.699 38.6123 358.011 38.3975L357.123 37.1076C356.796 37.3329 356.472 37.5641 356.153 37.8013L357.085 39.0591ZM356.164 37.7932L343.963 46.5139L344.873 47.7879L357.074 39.0672L356.164 37.7932ZM343.751 47.5619L345.723 50.7598L347.056 49.9379L345.084 46.74L343.751 47.5619ZM340.295 81.1423C340.295 68.7811 342.746 58.5514 347.075 50.7279L345.705 49.9698C341.219 58.0775 338.729 68.5827 338.729 81.1423H340.295ZM409.076 200.276C390.122 189.332 372.917 170.522 360.45 148.928C347.983 127.334 340.295 103.029 340.295 81.1423H338.729C338.729 103.369 346.526 127.942 359.094 149.711C371.662 171.48 389.045 190.518 408.293 201.632L409.076 200.276ZM444.764 209.282C434.455 210.65 422.237 207.874 409.076 200.276L408.293 201.632C421.66 209.349 434.226 212.26 444.97 210.835L444.764 209.282ZM444.2 210.469L446.347 213.95L447.68 213.128L445.533 209.648L444.2 210.469ZM447.467 214.177L462.182 203.703L461.274 202.427L446.559 212.901L447.467 214.177ZM462.391 202.649L462.353 202.589L461.027 203.422L461.065 203.481L462.391 202.649Z" fill="#060606"/>
<circle cx="79.8742" cy="79.8742" r="79.8742" transform="matrix(0.866025 0.5 -2.70279e-08 1 326.777 10.3359)" fill="white" stroke="#060606" stroke-width="1.56596"/>
<mask id="mask2_471_7581" style="mask-type:alpha" maskUnits="userSpaceOnUse" x="326" y="39" width="140" height="182">
<circle cx="79.8742" cy="79.8742" r="79.8742" transform="matrix(0.866025 0.5 -2.70279e-08 1 326.777 10.3359)" fill="#B0F127" stroke="#060606" stroke-width="1.56596"/>
</mask>
<g mask="url(#mask2_471_7581)">
<path d="M418.325 137.407C419.424 129.556 413.829 121.764 406.178 114.303L408.66 104.241L402.6 98.9981L400.184 108.795C398.591 107.417 396.954 106.04 395.329 104.673L397.762 94.8119L391.706 89.5714L389.222 99.6288C387.904 98.5208 386.609 97.4306 385.353 96.3445L385.359 96.3126L377.002 89.0782L375.39 95.621C375.39 95.621 379.886 99.4066 379.792 99.4256C382.246 101.55 382.689 103.682 382.615 105.125L379.788 116.589C379.957 116.736 380.176 116.935 380.418 117.186C380.216 117.011 380 116.823 379.778 116.633L375.815 132.69C375.515 133.377 374.754 134.229 373.038 132.749C373.098 132.885 368.633 128.936 368.633 128.936L365.625 135.209L373.511 142.032C374.978 143.303 376.416 144.578 377.831 145.813L375.323 155.992L381.376 161.231L383.86 151.162C385.513 152.634 387.118 154.039 388.689 155.397L386.214 165.417L392.274 170.66L394.781 160.503C405.115 168.726 412.885 172.302 416.156 163.398C418.791 156.231 416.024 149.621 410.588 143.214C414.547 144.445 417.529 143.16 418.325 137.407ZM404.479 151.832C402.607 159.44 389.937 147.428 385.829 143.878L389.157 130.396C393.264 133.951 406.437 143.9 404.479 151.832ZM406.354 130.37C404.645 137.288 394.1 127.183 390.679 124.224L393.696 111.995C397.117 114.955 408.133 123.153 406.354 130.37Z" fill="#060606"/>
<circle cx="79.8742" cy="79.8742" r="79.8742" transform="matrix(0.866025 0.5 -2.70279e-08 1 326.777 10.3359)" stroke="#060606" stroke-width="1.56596"/>
</g>
<path fill-rule="evenodd" clip-rule="evenodd" d="M137.547 385.147C143.493 380.399 147.074 371.916 147.074 360.4C147.074 334.4 128.821 302.783 106.304 289.783C94.4512 282.94 83.7799 282.619 76.3304 287.642L76.3274 287.637L76.0889 287.808C75.9585 287.899 75.8292 287.991 75.7008 288.085L68.4256 293.285L69.5881 295.17C66.99 299.866 65.5332 305.977 65.5332 313.322C65.5332 339.322 83.7868 370.939 106.304 383.939C114.122 388.453 121.427 390.129 127.632 389.305L128.895 391.354L137.568 385.181L137.547 385.147Z" fill="#ACF3A6"/>
<path d="M137.547 385.147L137.058 384.535L136.512 384.971L136.884 385.563L137.547 385.147ZM106.304 289.783L106.695 289.105L106.304 289.783ZM76.3304 287.642L75.6673 288.059L76.0975 288.744L76.7682 288.291L76.3304 287.642ZM76.3274 287.637L76.9905 287.221L76.5484 286.517L75.8721 287L76.3274 287.637ZM76.0889 287.808L76.5364 288.45L76.5442 288.445L76.0889 287.808ZM75.7008 288.085L76.1562 288.722L76.1639 288.717L75.7008 288.085ZM68.4256 293.285L67.9703 292.648L67.3752 293.073L67.7591 293.696L68.4256 293.285ZM69.5881 295.17L70.2732 295.55L70.4948 295.149L70.2546 294.76L69.5881 295.17ZM106.304 383.939L106.695 383.261L106.304 383.939ZM127.632 389.305L128.298 388.894L128.032 388.462L127.529 388.529L127.632 389.305ZM128.895 391.354L128.229 391.765L128.668 392.477L129.349 391.992L128.895 391.354ZM137.568 385.181L138.022 385.819L138.624 385.39L138.231 384.765L137.568 385.181ZM146.291 360.4C146.291 371.769 142.758 379.984 137.058 384.535L138.035 385.759C144.229 380.814 147.857 372.064 147.857 360.4H146.291ZM105.912 290.461C117.024 296.876 127.127 307.916 134.455 320.608C141.782 333.3 146.291 347.57 146.291 360.4H147.857C147.857 347.23 143.24 332.692 135.811 319.825C128.383 306.958 118.101 295.69 106.695 289.105L105.912 290.461ZM76.7682 288.291C83.8798 283.496 94.2097 283.705 105.912 290.461L106.695 289.105C94.6927 282.175 83.6801 281.742 75.8927 286.993L76.7682 288.291ZM76.9936 287.226L76.9905 287.221L75.6642 288.054L75.6673 288.059L76.9936 287.226ZM75.8721 287L75.6336 287.171L76.5442 288.445L76.7826 288.274L75.8721 287ZM76.1639 288.717C76.2871 288.626 76.4112 288.538 76.5364 288.45L75.6414 287.165C75.5058 287.26 75.3713 287.356 75.2378 287.454L76.1639 288.717ZM75.2456 287.448L67.9703 292.648L68.8809 293.922L76.1561 288.722L75.2456 287.448ZM67.7591 293.696L68.9217 295.581L70.2546 294.76L69.0921 292.874L67.7591 293.696ZM66.3162 313.322C66.3162 306.076 67.7537 300.103 70.2732 295.55L68.9031 294.791C66.2263 299.629 64.7502 305.878 64.7502 313.322H66.3162ZM106.695 383.261C95.5838 376.846 85.4802 365.806 78.1527 353.114C70.8252 340.422 66.3162 326.152 66.3162 313.322H64.7502C64.7502 326.492 69.368 341.03 76.7966 353.897C84.2251 366.764 94.5068 378.032 105.912 384.617L106.695 383.261ZM127.529 388.529C121.541 389.324 114.41 387.715 106.695 383.261L105.912 384.617C113.834 389.191 121.312 390.934 127.735 390.081L127.529 388.529ZM126.965 389.716L128.229 391.765L129.562 390.943L128.298 388.894L126.965 389.716ZM129.349 391.992L138.022 385.819L137.114 384.543L128.441 390.716L129.349 391.992ZM138.231 384.765L138.21 384.731L136.884 385.563L136.905 385.597L138.231 384.765Z" fill="#060606"/>
<mask id="mask3_471_7581" style="mask-type:alpha" maskUnits="userSpaceOnUse" x="64" y="283" width="84" height="110">
<path fill-rule="evenodd" clip-rule="evenodd" d="M137.549 385.147C143.495 380.399 147.076 371.916 147.076 360.4C147.076 334.4 128.823 302.783 106.306 289.783C94.4532 282.94 83.7819 282.619 76.3324 287.642L76.3293 287.637L76.0889 287.809C75.9599 287.899 75.8318 287.991 75.7047 288.084L68.4275 293.285L69.5901 295.171C66.9919 299.866 65.5352 305.977 65.5352 313.322C65.5352 339.322 83.7888 370.939 106.306 383.939C114.124 388.453 121.429 390.129 127.634 389.305L128.897 391.354L137.57 385.181L137.549 385.147Z" fill="#B0F127"/>
<path d="M137.549 385.147L137.06 384.535L136.514 384.971L136.886 385.563L137.549 385.147ZM106.306 289.783L105.914 290.461L106.306 289.783ZM76.3324 287.642L75.6692 288.059L76.0994 288.744L76.7701 288.292L76.3324 287.642ZM76.3293 287.637L76.9924 287.221L76.5503 286.517L75.874 287L76.3293 287.637ZM76.0889 287.809L76.5365 288.452L76.5442 288.446L76.0889 287.809ZM75.7047 288.084L76.16 288.721L76.1676 288.715L75.7047 288.084ZM68.4275 293.285L67.9722 292.648L67.3771 293.073L67.761 293.696L68.4275 293.285ZM69.5901 295.171L70.2752 295.55L70.4968 295.149L70.2565 294.76L69.5901 295.171ZM65.5352 313.322H64.7522H65.5352ZM106.306 383.939L106.697 383.261L106.306 383.939ZM127.634 389.305L128.3 388.894L128.034 388.462L127.53 388.529L127.634 389.305ZM128.897 391.354L128.231 391.765L128.67 392.477L129.351 391.992L128.897 391.354ZM137.57 385.181L138.024 385.819L138.626 385.39L138.233 384.765L137.57 385.181ZM146.293 360.4C146.293 371.769 142.76 379.985 137.06 384.535L138.037 385.759C144.231 380.814 147.859 372.064 147.859 360.4H146.293ZM105.914 290.461C117.026 296.876 127.129 307.916 134.457 320.608C141.784 333.3 146.293 347.57 146.293 360.4H147.859C147.859 347.23 143.242 332.692 135.813 319.825C128.384 306.958 118.103 295.69 106.697 289.105L105.914 290.461ZM76.7701 288.292C83.8817 283.496 94.2117 283.705 105.914 290.461L106.697 289.105C94.6947 282.175 83.682 281.742 75.8946 286.993L76.7701 288.292ZM76.9955 287.226L76.9924 287.221L75.6661 288.054L75.6692 288.059L76.9955 287.226ZM75.874 287L75.6336 287.172L76.5442 288.446L76.7846 288.274L75.874 287ZM76.1676 288.715C76.2896 288.626 76.4126 288.538 76.5365 288.452L75.6414 287.167C75.5071 287.26 75.3739 287.355 75.2417 287.452L76.1676 288.715ZM75.2494 287.447L67.9722 292.648L68.8828 293.922L76.16 288.721L75.2494 287.447ZM67.761 293.696L68.9236 295.581L70.2565 294.76L69.094 292.874L67.761 293.696ZM66.3181 313.322C66.3181 306.076 67.7557 300.103 70.2752 295.55L68.905 294.791C66.2282 299.629 64.7522 305.878 64.7522 313.322H66.3181ZM106.697 383.261C95.5858 376.846 85.4822 365.806 78.1547 353.114C70.8272 340.422 66.3181 326.152 66.3181 313.322H64.7522C64.7522 326.492 69.37 341.03 76.7985 353.897C84.227 366.764 94.5087 378.032 105.914 384.617L106.697 383.261ZM127.53 388.529C121.543 389.324 114.412 387.715 106.697 383.261L105.914 384.617C113.836 389.191 121.314 390.934 127.737 390.081L127.53 388.529ZM126.967 389.716L128.231 391.765L129.564 390.943L128.3 388.894L126.967 389.716ZM129.351 391.992L138.024 385.819L137.116 384.543L128.443 390.716L129.351 391.992ZM138.233 384.765L138.212 384.731L136.886 385.563L136.907 385.597L138.233 384.765Z" fill="#060606"/>
</mask>
<g mask="url(#mask3_471_7581)">
<rect width="99.5888" height="42.8214" transform="matrix(0.866025 -0.5 2.65795e-08 1 109.527 384.213)" fill="#ACF3A6"/>
</g>
<path d="M137.547 385.147L137.058 384.535L136.512 384.971L136.884 385.563L137.547 385.147ZM106.304 289.783L106.695 289.105L106.304 289.783ZM76.3304 287.642L75.6673 288.059L76.0975 288.744L76.7682 288.291L76.3304 287.642ZM76.3274 287.637L76.9905 287.221L76.5484 286.517L75.8721 287L76.3274 287.637ZM76.0889 287.808L76.5364 288.45L76.5442 288.445L76.0889 287.808ZM75.7008 288.085L76.1562 288.722L76.1639 288.717L75.7008 288.085ZM68.4256 293.285L67.9703 292.648L67.3752 293.073L67.7591 293.696L68.4256 293.285ZM69.5881 295.17L70.2732 295.55L70.4948 295.149L70.2546 294.76L69.5881 295.17ZM106.304 383.939L106.695 383.261L106.304 383.939ZM127.632 389.305L128.298 388.894L128.032 388.462L127.529 388.529L127.632 389.305ZM128.895 391.354L128.229 391.765L128.668 392.477L129.349 391.992L128.895 391.354ZM137.568 385.181L138.022 385.819L138.624 385.39L138.231 384.765L137.568 385.181ZM146.291 360.4C146.291 371.769 142.758 379.984 137.058 384.535L138.035 385.759C144.229 380.814 147.857 372.064 147.857 360.4H146.291ZM105.912 290.461C117.024 296.876 127.127 307.916 134.455 320.608C141.782 333.3 146.291 347.57 146.291 360.4H147.857C147.857 347.23 143.24 332.692 135.811 319.825C128.383 306.958 118.101 295.69 106.695 289.105L105.912 290.461ZM76.7682 288.291C83.8798 283.496 94.2097 283.705 105.912 290.461L106.695 289.105C94.6927 282.175 83.6801 281.742 75.8927 286.993L76.7682 288.291ZM76.9936 287.226L76.9905 287.221L75.6642 288.054L75.6673 288.059L76.9936 287.226ZM75.8721 287L75.6336 287.171L76.5442 288.445L76.7826 288.274L75.8721 287ZM76.1639 288.717C76.2871 288.626 76.4112 288.538 76.5364 288.45L75.6414 287.165C75.5058 287.26 75.3713 287.356 75.2378 287.454L76.1639 288.717ZM75.2456 287.448L67.9703 292.648L68.8809 293.922L76.1561 288.722L75.2456 287.448ZM67.7591 293.696L68.9217 295.581L70.2546 294.76L69.0921 292.874L67.7591 293.696ZM66.3162 313.322C66.3162 306.076 67.7537 300.103 70.2732 295.55L68.9031 294.791C66.2263 299.629 64.7502 305.878 64.7502 313.322H66.3162ZM106.695 383.261C95.5838 376.846 85.4802 365.806 78.1527 353.114C70.8252 340.422 66.3162 326.152 66.3162 313.322H64.7502C64.7502 326.492 69.368 341.03 76.7966 353.897C84.2251 366.764 94.5068 378.032 105.912 384.617L106.695 383.261ZM127.529 388.529C121.541 389.324 114.41 387.715 106.695 383.261L105.912 384.617C113.834 389.191 121.312 390.934 127.735 390.081L127.529 388.529ZM126.965 389.716L128.229 391.765L129.562 390.943L128.298 388.894L126.965 389.716ZM129.349 391.992L138.022 385.819L137.114 384.543L128.441 390.716L129.349 391.992ZM138.231 384.765L138.21 384.731L136.884 385.563L136.905 385.597L138.231 384.765Z" fill="#060606"/>
<circle cx="47.0778" cy="47.0778" r="47.0778" transform="matrix(0.866025 0.5 -2.65795e-08 1 58.0293 271.59)" fill="white" stroke="#060606" stroke-width="1.56596"/>
<mask id="mask4_471_7581" style="mask-type:alpha" maskUnits="userSpaceOnUse" x="57" y="288" width="84" height="108">
<circle cx="47.0778" cy="47.0778" r="47.0778" transform="matrix(0.866025 0.5 -2.65795e-08 1 58.0293 271.59)" fill="#B0F127" stroke="#060606" stroke-width="1.56596"/>
</mask>
<g mask="url(#mask4_471_7581)">
<circle cx="47.0778" cy="47.0778" r="47.0778" transform="matrix(0.866025 0.5 -2.65795e-08 1 58.0293 271.59)" stroke="#060606" stroke-width="1.56596"/>
<path fill-rule="evenodd" clip-rule="evenodd" d="M114.439 351.235C114.439 361.207 107.438 365.249 98.8017 360.263C90.1653 355.277 83.1641 343.151 83.1641 333.178C83.1641 323.205 90.1653 319.163 98.8017 324.15C107.438 329.136 114.439 341.262 114.439 351.235ZM94.3705 346.834L91.3356 345.081C90.6979 344.713 90.3829 344.531 90.1908 344.279C89.9834 344.004 89.8566 343.673 89.8413 343.38C89.8297 343.112 89.9872 342.883 90.3022 342.427L97.7956 331.501C98.1145 331.038 98.2758 330.807 98.4794 330.805C98.6984 330.803 98.9596 330.954 99.1786 331.209C99.3822 331.446 99.5435 331.863 99.8624 332.695L101.403 336.689L101.411 336.71C101.755 337.603 101.93 338.056 102.006 338.47C102.09 338.923 102.09 339.348 102.006 339.703C101.929 340.032 101.756 340.287 101.407 340.79L97.4706 346.552L97.4604 346.567C97.1138 347.067 96.9381 347.321 96.6946 347.448C96.4295 347.588 96.1107 347.616 95.7611 347.535C95.4422 347.452 95.085 347.246 94.3705 346.834ZM102.034 351.258L106.383 353.769C107.025 354.139 107.347 354.326 107.539 354.291C107.747 354.255 107.877 354.069 107.889 353.792C107.9 353.545 107.746 353.149 107.444 352.373C107.434 352.346 107.423 352.319 107.413 352.292L105.234 346.732L105.21 346.669C104.904 345.895 104.749 345.504 104.551 345.272C104.332 345.017 104.074 344.869 103.855 344.871C103.656 344.875 103.494 345.097 103.175 345.547L101.005 348.597L100.997 348.608C100.68 349.057 100.521 349.282 100.532 349.548C100.548 349.841 100.674 350.176 100.882 350.451C101.07 350.702 101.393 350.888 102.034 351.258Z" fill="#060606"/>
</g>
<path fill-rule="evenodd" clip-rule="evenodd" d="M1005.45 385.203C994.277 376.284 987.549 360.347 987.549 338.711C987.549 289.867 1021.84 230.473 1064.14 206.05C1086.41 193.194 1106.46 192.592 1120.45 202.03L1120.46 202.023L1120.75 202.234C1121.1 202.473 1121.44 202.719 1121.78 202.971L1135.3 212.633L1133.12 216.174C1138 224.994 1140.73 236.473 1140.73 250.271C1140.73 299.115 1106.44 358.509 1064.14 382.931C1049.45 391.411 1035.73 394.56 1024.08 393.013L1021.7 396.866L1005.41 385.269L1005.45 385.203Z" fill="#ACF3A6"/>
<path d="M1005.45 385.203L1005.94 384.591L1006.48 385.027L1006.11 385.619L1005.45 385.203ZM1064.14 206.05L1064.53 206.729L1064.14 206.05ZM1120.45 202.03L1121.11 202.447L1120.68 203.132L1120.01 202.679L1120.45 202.03ZM1120.46 202.023L1119.79 201.607L1120.23 200.903L1120.91 201.386L1120.46 202.023ZM1120.75 202.234L1120.31 202.878L1120.29 202.871L1120.75 202.234ZM1121.78 202.971L1121.33 203.609L1121.32 203.601L1121.78 202.971ZM1135.3 212.633L1135.75 211.996L1136.35 212.421L1135.97 213.044L1135.3 212.633ZM1133.12 216.174L1132.43 216.553L1132.21 216.152L1132.45 215.763L1133.12 216.174ZM1064.14 382.931L1063.75 382.253L1064.14 382.931ZM1024.08 393.013L1023.41 392.602L1023.68 392.17L1024.18 392.237L1024.08 393.013ZM1021.7 396.866L1022.37 397.277L1021.93 397.989L1021.25 397.504L1021.7 396.866ZM1005.41 385.269L1004.95 385.907L1004.35 385.478L1004.75 384.852L1005.41 385.269ZM988.332 338.711C988.332 360.2 995.013 375.869 1005.94 384.591L1004.96 385.815C993.542 376.699 986.766 360.495 986.766 338.711H988.332ZM1064.53 206.729C1043.53 218.855 1024.47 239.695 1010.66 263.614C996.85 287.533 988.332 314.459 988.332 338.711H986.766C986.766 314.119 995.393 286.925 1009.3 262.831C1023.21 238.737 1042.45 217.668 1063.75 205.372L1064.53 206.729ZM1120.01 202.679C1106.36 193.469 1086.65 193.959 1064.53 206.729L1063.75 205.372C1086.17 192.43 1106.56 191.715 1120.89 201.381L1120.01 202.679ZM1119.79 201.614L1119.79 201.607L1121.12 202.44L1121.11 202.447L1119.79 201.614ZM1120.91 201.386L1121.2 201.597L1120.29 202.871L1120 202.66L1120.91 201.386ZM1121.32 203.601C1120.98 203.354 1120.65 203.113 1120.31 202.878L1121.19 201.589C1121.55 201.834 1121.9 202.085 1122.25 202.342L1121.32 203.601ZM1122.24 202.334L1135.75 211.996L1134.84 213.27L1121.33 203.608L1122.24 202.334ZM1135.97 213.044L1133.78 216.585L1132.45 215.763L1134.63 212.222L1135.97 213.044ZM1139.95 250.271C1139.95 236.573 1137.23 225.231 1132.43 216.553L1133.8 215.795C1138.76 224.757 1141.52 236.374 1141.52 250.271H1139.95ZM1063.75 382.253C1084.75 370.127 1103.81 349.287 1117.62 325.368C1131.43 301.449 1139.95 274.523 1139.95 250.271H1141.52C1141.52 274.863 1132.89 302.057 1118.98 326.151C1105.07 350.245 1085.83 371.314 1064.53 383.61L1063.75 382.253ZM1024.18 392.237C1035.62 393.755 1049.17 390.673 1063.75 382.253L1064.53 383.61C1049.74 392.149 1035.85 395.365 1023.97 393.789L1024.18 392.237ZM1024.74 393.424L1022.37 397.277L1021.03 396.455L1023.41 392.602L1024.74 393.424ZM1021.25 397.504L1004.95 385.907L1005.86 384.631L1022.16 396.228L1021.25 397.504ZM1004.75 384.852L1004.79 384.786L1006.11 385.619L1006.07 385.685L1004.75 384.852Z" fill="#060606"/>
<mask id="mask5_471_7581" style="mask-type:alpha" maskUnits="userSpaceOnUse" x="986" y="194" width="156" height="204">
<path fill-rule="evenodd" clip-rule="evenodd" d="M1005.45 385.199C994.277 376.28 987.549 360.343 987.549 338.707C987.549 289.863 1021.84 230.469 1064.14 206.047C1086.41 193.19 1106.46 192.588 1120.45 202.026L1120.46 202.02L1120.74 202.224C1121.09 202.468 1121.44 202.717 1121.79 202.973L1135.3 212.629L1133.12 216.17C1138 224.99 1140.73 236.47 1140.73 250.267C1140.73 299.111 1106.44 358.505 1064.14 382.928C1049.45 391.407 1035.73 394.556 1024.08 393.009L1021.7 396.862L1005.41 385.265L1005.45 385.199Z" fill="#B0F127"/>
<path d="M1005.45 385.199L1005.94 384.587L1006.48 385.023L1006.11 385.615L1005.45 385.199ZM1064.14 206.047L1064.53 206.725L1064.14 206.047ZM1120.45 202.026L1121.11 202.443L1120.68 203.128L1120.01 202.675L1120.45 202.026ZM1120.46 202.02L1119.79 201.603L1120.23 200.899L1120.91 201.383L1120.46 202.02ZM1120.74 202.224L1120.3 202.869L1120.29 202.861L1120.74 202.224ZM1121.79 202.973L1121.33 203.61L1121.32 203.602L1121.79 202.973ZM1135.3 212.629L1135.75 211.992L1136.35 212.418L1135.97 213.04L1135.3 212.629ZM1133.12 216.17L1132.43 216.549L1132.21 216.149L1132.45 215.759L1133.12 216.17ZM1064.14 382.928L1064.53 383.606L1064.14 382.928ZM1024.08 393.009L1023.41 392.598L1023.68 392.166L1024.18 392.233L1024.08 393.009ZM1021.7 396.862L1022.37 397.273L1021.93 397.985L1021.25 397.5L1021.7 396.862ZM1005.41 385.265L1004.95 385.903L1004.35 385.474L1004.75 384.849L1005.41 385.265ZM988.332 338.707C988.332 360.196 995.013 375.865 1005.94 384.587L1004.96 385.811C993.542 376.695 986.766 360.491 986.766 338.707H988.332ZM1064.53 206.725C1043.53 218.851 1024.47 239.691 1010.66 263.61C996.85 287.53 988.332 314.455 988.332 338.707H986.766C986.766 314.115 995.393 286.922 1009.3 262.827C1023.21 238.733 1042.45 217.664 1063.75 205.368L1064.53 206.725ZM1120.01 202.675C1106.36 193.465 1086.65 193.955 1064.53 206.725L1063.75 205.368C1086.17 192.426 1106.56 191.711 1120.89 201.377L1120.01 202.675ZM1119.79 201.61L1119.79 201.603L1121.12 202.436L1121.11 202.443L1119.79 201.61ZM1120.91 201.383L1121.2 201.587L1120.29 202.861L1120 202.657L1120.91 201.383ZM1121.32 203.602C1120.98 203.351 1120.64 203.107 1120.3 202.869L1121.19 201.58C1121.55 201.828 1121.9 202.083 1122.26 202.344L1121.32 203.602ZM1122.24 202.336L1135.75 211.992L1134.84 213.266L1121.33 203.61L1122.24 202.336ZM1135.97 213.04L1133.78 216.581L1132.45 215.759L1134.63 212.218L1135.97 213.04ZM1139.95 250.267C1139.95 236.569 1137.23 225.227 1132.43 216.549L1133.8 215.791C1138.76 224.753 1141.52 236.37 1141.52 250.267H1139.95ZM1063.75 382.249C1084.75 370.123 1103.81 349.283 1117.62 325.364C1131.43 301.445 1139.95 274.519 1139.95 250.267H1141.52C1141.52 274.859 1132.89 302.053 1118.98 326.147C1105.07 350.241 1085.83 371.31 1064.53 383.606L1063.75 382.249ZM1024.18 392.233C1035.62 393.751 1049.17 390.669 1063.75 382.249L1064.53 383.606C1049.74 392.145 1035.85 395.361 1023.97 393.785L1024.18 392.233ZM1024.74 393.42L1022.37 397.273L1021.03 396.451L1023.41 392.598L1024.74 393.42ZM1021.25 397.5L1004.95 385.903L1005.86 384.627L1022.16 396.225L1021.25 397.5ZM1004.75 384.849L1004.79 384.782L1006.11 385.615L1006.07 385.681L1004.75 384.849Z" fill="#060606"/>
</mask>
<g mask="url(#mask5_471_7581)">
<rect width="187.088" height="80.4444" transform="matrix(-0.866025 -0.5 0 1 1058.09 383.441)" fill="#ACF3A6"/>
</g>
<path d="M1005.45 385.203L1005.94 384.591L1006.48 385.027L1006.11 385.619L1005.45 385.203ZM1064.14 206.05L1064.53 206.729L1064.14 206.05ZM1120.45 202.03L1121.11 202.447L1120.68 203.132L1120.01 202.679L1120.45 202.03ZM1120.46 202.023L1119.79 201.607L1120.23 200.903L1120.91 201.386L1120.46 202.023ZM1120.75 202.234L1120.31 202.878L1120.29 202.871L1120.75 202.234ZM1121.78 202.971L1121.33 203.609L1121.32 203.601L1121.78 202.971ZM1135.3 212.633L1135.75 211.996L1136.35 212.421L1135.97 213.044L1135.3 212.633ZM1133.12 216.174L1132.43 216.553L1132.21 216.152L1132.45 215.763L1133.12 216.174ZM1064.14 382.931L1063.75 382.253L1064.14 382.931ZM1024.08 393.013L1023.41 392.602L1023.68 392.17L1024.18 392.237L1024.08 393.013ZM1021.7 396.866L1022.37 397.277L1021.93 397.989L1021.25 397.504L1021.7 396.866ZM1005.41 385.269L1004.95 385.907L1004.35 385.478L1004.75 384.852L1005.41 385.269ZM988.332 338.711C988.332 360.2 995.013 375.869 1005.94 384.591L1004.96 385.815C993.542 376.699 986.766 360.495 986.766 338.711H988.332ZM1064.53 206.729C1043.53 218.855 1024.47 239.695 1010.66 263.614C996.85 287.533 988.332 314.459 988.332 338.711H986.766C986.766 314.119 995.393 286.925 1009.3 262.831C1023.21 238.737 1042.45 217.668 1063.75 205.372L1064.53 206.729ZM1120.01 202.679C1106.36 193.469 1086.65 193.959 1064.53 206.729L1063.75 205.372C1086.17 192.43 1106.56 191.715 1120.89 201.381L1120.01 202.679ZM1119.79 201.614L1119.79 201.607L1121.12 202.44L1121.11 202.447L1119.79 201.614ZM1120.91 201.386L1121.2 201.597L1120.29 202.871L1120 202.66L1120.91 201.386ZM1121.32 203.601C1120.98 203.354 1120.65 203.113 1120.31 202.878L1121.19 201.589C1121.55 201.834 1121.9 202.085 1122.25 202.342L1121.32 203.601ZM1122.24 202.334L1135.75 211.996L1134.84 213.27L1121.33 203.608L1122.24 202.334ZM1135.97 213.044L1133.78 216.585L1132.45 215.763L1134.63 212.222L1135.97 213.044ZM1139.95 250.271C1139.95 236.573 1137.23 225.231 1132.43 216.553L1133.8 215.795C1138.76 224.757 1141.52 236.374 1141.52 250.271H1139.95ZM1063.75 382.253C1084.75 370.127 1103.81 349.287 1117.62 325.368C1131.43 301.449 1139.95 274.523 1139.95 250.271H1141.52C1141.52 274.863 1132.89 302.057 1118.98 326.151C1105.07 350.245 1085.83 371.314 1064.53 383.61L1063.75 382.253ZM1024.18 392.237C1035.62 393.755 1049.17 390.673 1063.75 382.253L1064.53 383.61C1049.74 392.149 1035.85 395.365 1023.97 393.789L1024.18 392.237ZM1024.74 393.424L1022.37 397.277L1021.03 396.455L1023.41 392.602L1024.74 393.424ZM1021.25 397.504L1004.95 385.907L1005.86 384.631L1022.16 396.228L1021.25 397.504ZM1004.75 384.852L1004.79 384.786L1006.11 385.619L1006.07 385.685L1004.75 384.852Z" fill="#060606"/>
<circle cx="88.4405" cy="88.4405" r="88.4405" transform="matrix(-0.866025 0.5 0 1 1154.83 171.871)" fill="white" stroke="#060606" stroke-width="1.56596"/>
<mask id="mask6_471_7581" style="mask-type:alpha" maskUnits="userSpaceOnUse" x="1000" y="204" width="156" height="201">
<circle cx="88.4405" cy="88.4405" r="88.4405" transform="matrix(-0.866025 0.5 0 1 1154.83 171.871)" fill="#B0F127" stroke="#060606" stroke-width="1.56596"/>
</mask>
<g mask="url(#mask6_471_7581)">
<circle cx="88.4405" cy="88.4405" r="88.4405" transform="matrix(-0.866025 0.5 0 1 1154.83 171.871)" stroke="#060606" stroke-width="1.56596"/>
<path d="M1063.44 320.572L1077.31 328.578L1091.19 304.546L1099.26 309.205L1077.31 347.216L1055.37 334.549L1063.44 320.572ZM1041.61 326.602L1049.68 331.261L1057.74 317.284L1049.67 312.625L1041.61 326.602ZM1063.44 307.413L1077.31 283.393L1091.19 291.403L1099.26 277.429L1099.26 277.426L1077.31 264.756L1055.37 302.754L1055.36 302.773L1063.44 307.413ZM1096.88 294.685L1104.95 299.344L1113.02 285.367L1104.95 280.708L1096.88 294.685Z" fill="#060606"/>
<path d="M1085.71 301.144L1085.71 301.142L1077.31 315.687L1071.11 312.104L1071.11 312.104L1070.39 311.692L1068.92 310.843L1068.91 310.836L1068.92 310.816L1077.31 296.284L1085.71 301.132L1085.71 301.135L1085.71 301.144Z" fill="#060606"/>
</g>
<path fill-rule="evenodd" clip-rule="evenodd" d="M490.247 451.086C495.546 446.856 498.738 439.297 498.738 429.035C498.738 405.868 482.473 377.697 462.41 366.114C451.848 360.016 442.339 359.731 435.702 364.207L435.7 364.204L435.557 364.306C435.394 364.418 435.233 364.533 435.073 364.651L428.659 369.236L429.694 370.915C427.38 375.099 426.082 380.544 426.082 387.088C426.082 410.255 442.347 438.426 462.41 450.009C469.376 454.031 475.884 455.525 481.412 454.791L482.539 456.618L490.267 451.118L490.247 451.086Z" fill="#ACF3A6"/>
<path d="M490.247 451.086L489.759 450.475L489.212 450.911L489.584 451.503L490.247 451.086ZM462.41 366.114L462.801 365.436L462.41 366.114ZM435.702 364.207L435.039 364.623L435.469 365.308L436.139 364.856L435.702 364.207ZM435.7 364.204L436.363 363.787L435.921 363.083L435.244 363.567L435.7 364.204ZM435.557 364.306L436.001 364.95L436.012 364.943L435.557 364.306ZM435.073 364.651L435.529 365.288L435.54 365.28L435.073 364.651ZM428.659 369.236L428.204 368.599L427.609 369.024L427.992 369.647L428.659 369.236ZM429.694 370.915L430.38 371.294L430.601 370.894L430.361 370.504L429.694 370.915ZM462.41 450.009L462.018 450.687L462.41 450.009ZM481.412 454.791L482.079 454.38L481.812 453.948L481.309 454.015L481.412 454.791ZM482.539 456.618L481.873 457.029L482.312 457.741L482.993 457.256L482.539 456.618ZM490.267 451.118L490.721 451.756L491.323 451.327L490.93 450.701L490.267 451.118ZM497.955 429.035C497.955 439.15 494.811 446.441 489.759 450.475L490.736 451.698C496.282 447.271 499.521 439.445 499.521 429.035H497.955ZM462.018 366.792C471.903 372.499 480.896 382.323 487.419 393.622C493.943 404.921 497.955 417.622 497.955 429.035H499.521C499.521 417.282 495.4 404.313 488.776 392.839C482.151 381.365 472.98 371.312 462.801 365.436L462.018 366.792ZM436.139 364.856C442.439 360.608 451.607 360.781 462.018 366.792L462.801 365.436C452.09 359.251 442.24 358.853 435.264 363.558L436.139 364.856ZM436.365 363.791L436.363 363.787L435.036 364.62L435.039 364.623L436.365 363.791ZM435.244 363.567L435.102 363.669L436.012 364.943L436.155 364.841L435.244 363.567ZM435.54 365.28C435.692 365.168 435.846 365.058 436.001 364.95L435.113 363.661C434.942 363.778 434.774 363.899 434.607 364.022L435.54 365.28ZM434.618 364.014L428.204 368.599L429.114 369.873L435.529 365.288L434.618 364.014ZM427.992 369.647L429.028 371.326L430.361 370.504L429.325 368.825L427.992 369.647ZM426.865 387.088C426.865 380.643 428.144 375.336 430.38 371.294L429.009 370.536C426.616 374.862 425.299 380.444 425.299 387.088H426.865ZM462.801 449.331C452.917 443.624 443.924 433.8 437.4 422.501C430.877 411.202 426.865 398.501 426.865 387.088H425.299C425.299 398.841 429.42 411.81 436.044 423.284C442.669 434.758 451.84 444.811 462.018 450.687L462.801 449.331ZM481.309 454.015C475.998 454.72 469.664 453.293 462.801 449.331L462.018 450.687C469.088 454.769 475.769 456.33 481.515 455.567L481.309 454.015ZM480.746 455.202L481.873 457.029L483.206 456.207L482.079 454.38L480.746 455.202ZM482.993 457.256L490.721 451.756L489.813 450.48L482.085 455.981L482.993 457.256ZM490.93 450.701L490.91 450.67L489.584 451.503L489.604 451.534L490.93 450.701Z" fill="#060606"/>
<mask id="mask7_471_7581" style="mask-type:alpha" maskUnits="userSpaceOnUse" x="425" y="360" width="75" height="98">
<path fill-rule="evenodd" clip-rule="evenodd" d="M490.247 451.085C495.546 446.854 498.738 439.295 498.738 429.033C498.738 405.866 482.473 377.695 462.41 366.112C451.848 360.014 442.339 359.729 435.702 364.205L435.7 364.202L435.557 364.304C435.394 364.416 435.233 364.531 435.073 364.649L428.659 369.234L429.694 370.913C427.38 375.097 426.082 380.542 426.082 387.086C426.082 410.253 442.347 438.424 462.41 450.007C469.376 454.029 475.884 455.523 481.412 454.789L482.539 456.616L490.267 451.116L490.247 451.085Z" fill="#B0F127"/>
<path d="M490.247 451.085L489.759 450.473L489.212 450.909L489.584 451.501L490.247 451.085ZM462.41 366.112L462.801 365.434L462.41 366.112ZM435.702 364.205L435.039 364.621L435.469 365.307L436.139 364.854L435.702 364.205ZM435.7 364.202L436.363 363.785L435.921 363.081L435.244 363.565L435.7 364.202ZM435.557 364.304L436.001 364.948L436.012 364.941L435.557 364.304ZM435.073 364.649L435.529 365.286L435.54 365.278L435.073 364.649ZM428.659 369.234L428.204 368.597L427.609 369.022L427.992 369.645L428.659 369.234ZM429.694 370.913L430.38 371.292L430.601 370.892L430.361 370.502L429.694 370.913ZM462.41 450.007L462.801 449.329V449.329L462.41 450.007ZM481.412 454.789L482.079 454.378L481.812 453.946L481.309 454.013L481.412 454.789ZM482.539 456.616L481.873 457.027L482.312 457.739L482.993 457.254L482.539 456.616ZM490.267 451.116L490.721 451.754L491.323 451.325L490.93 450.699L490.267 451.116ZM497.955 429.033C497.955 439.148 494.811 446.44 489.759 450.473L490.736 451.696C496.282 447.269 499.521 439.443 499.521 429.033H497.955ZM462.018 366.79C471.903 372.497 480.896 382.321 487.419 393.62C493.943 404.919 497.955 417.62 497.955 429.033H499.521C499.521 417.28 495.4 404.311 488.776 392.837C482.151 381.363 472.98 371.31 462.801 365.434L462.018 366.79ZM436.139 364.854C442.439 360.606 451.607 360.779 462.018 366.79L462.801 365.434C452.09 359.25 442.24 358.852 435.264 363.556L436.139 364.854ZM436.365 363.789L436.363 363.785L435.036 364.618L435.039 364.621L436.365 363.789ZM435.244 363.565L435.102 363.667L436.012 364.941L436.155 364.839L435.244 363.565ZM435.54 365.278C435.692 365.166 435.846 365.056 436.001 364.948L435.113 363.659C434.942 363.776 434.774 363.897 434.607 364.02L435.54 365.278ZM434.618 364.012L428.204 368.597L429.114 369.871L435.529 365.286L434.618 364.012ZM427.992 369.645L429.028 371.324L430.361 370.502L429.325 368.823L427.992 369.645ZM426.865 387.086C426.865 380.641 428.144 375.334 430.38 371.292L429.009 370.534C426.616 374.86 425.299 380.442 425.299 387.086H426.865ZM462.801 449.329C452.917 443.622 443.924 433.798 437.4 422.499C430.877 411.2 426.865 398.5 426.865 387.086H425.299C425.299 398.839 429.42 411.808 436.044 423.282C442.669 434.756 451.84 444.809 462.018 450.685L462.801 449.329ZM481.309 454.013C475.998 454.718 469.664 453.291 462.801 449.329L462.018 450.685C469.088 454.767 475.769 456.328 481.515 455.565L481.309 454.013ZM480.746 455.2L481.873 457.027L483.206 456.206L482.079 454.378L480.746 455.2ZM482.993 457.254L490.721 451.754L489.813 450.478L482.085 455.979L482.993 457.254ZM490.93 450.699L490.91 450.668L489.584 451.501L489.604 451.532L490.93 450.699Z" fill="#060606"/>
</mask>
<g mask="url(#mask7_471_7581)">
<rect width="88.7365" height="38.1551" transform="matrix(0.866025 -0.5 0 1 465.281 450.25)" fill="#ACF3A6"/>
</g>
<path d="M490.247 451.086L489.759 450.475L489.212 450.911L489.584 451.503L490.247 451.086ZM462.41 366.114L462.801 365.436L462.41 366.114ZM435.702 364.207L435.039 364.623L435.469 365.308L436.139 364.856L435.702 364.207ZM435.7 364.204L436.363 363.787L435.921 363.083L435.244 363.567L435.7 364.204ZM435.557 364.306L436.001 364.95L436.012 364.943L435.557 364.306ZM435.073 364.651L435.529 365.288L435.54 365.28L435.073 364.651ZM428.659 369.236L428.204 368.599L427.609 369.024L427.992 369.647L428.659 369.236ZM429.694 370.915L430.38 371.294L430.601 370.894L430.361 370.504L429.694 370.915ZM462.41 450.009L462.018 450.687L462.41 450.009ZM481.412 454.791L482.079 454.38L481.812 453.948L481.309 454.015L481.412 454.791ZM482.539 456.618L481.873 457.029L482.312 457.741L482.993 457.256L482.539 456.618ZM490.267 451.118L490.721 451.756L491.323 451.327L490.93 450.701L490.267 451.118ZM497.955 429.035C497.955 439.15 494.811 446.441 489.759 450.475L490.736 451.698C496.282 447.271 499.521 439.445 499.521 429.035H497.955ZM462.018 366.792C471.903 372.499 480.896 382.323 487.419 393.622C493.943 404.921 497.955 417.622 497.955 429.035H499.521C499.521 417.282 495.4 404.313 488.776 392.839C482.151 381.365 472.98 371.312 462.801 365.436L462.018 366.792ZM436.139 364.856C442.439 360.608 451.607 360.781 462.018 366.792L462.801 365.436C452.09 359.251 442.24 358.853 435.264 363.558L436.139 364.856ZM436.365 363.791L436.363 363.787L435.036 364.62L435.039 364.623L436.365 363.791ZM435.244 363.567L435.102 363.669L436.012 364.943L436.155 364.841L435.244 363.567ZM435.54 365.28C435.692 365.168 435.846 365.058 436.001 364.95L435.113 363.661C434.942 363.778 434.774 363.899 434.607 364.022L435.54 365.28ZM434.618 364.014L428.204 368.599L429.114 369.873L435.529 365.288L434.618 364.014ZM427.992 369.647L429.028 371.326L430.361 370.504L429.325 368.825L427.992 369.647ZM426.865 387.088C426.865 380.643 428.144 375.336 430.38 371.294L429.009 370.536C426.616 374.862 425.299 380.444 425.299 387.088H426.865ZM462.801 449.331C452.917 443.624 443.924 433.8 437.4 422.501C430.877 411.202 426.865 398.501 426.865 387.088H425.299C425.299 398.841 429.42 411.81 436.044 423.284C442.669 434.758 451.84 444.811 462.018 450.687L462.801 449.331ZM481.309 454.015C475.998 454.72 469.664 453.293 462.801 449.331L462.018 450.687C469.088 454.769 475.769 456.33 481.515 455.567L481.309 454.015ZM480.746 455.202L481.873 457.029L483.206 456.207L482.079 454.38L480.746 455.202ZM482.993 457.256L490.721 451.756L489.813 450.48L482.085 455.981L482.993 457.256ZM490.93 450.701L490.91 450.67L489.584 451.503L489.604 451.534L490.93 450.701Z" fill="#060606"/>
<circle cx="41.9477" cy="41.9477" r="41.9477" transform="matrix(0.866025 0.5 0 1 419.396 349.902)" fill="white" stroke="#060606" stroke-width="1.56596"/>
<mask id="mask8_471_7581" style="mask-type:alpha" maskUnits="userSpaceOnUse" x="418" y="365" width="75" height="96">
<circle cx="41.9477" cy="41.9477" r="41.9477" transform="matrix(0.866025 0.5 0 1 419.396 349.904)" fill="#B0F127" stroke="#060606" stroke-width="1.56596"/>
</mask>
<g mask="url(#mask8_471_7581)">
<path d="M445.282 416.079C445.477 415.969 445.745 415.994 446.03 416.158L471.847 431.064C472.319 431.336 472.555 432.122 472.221 432.31L467.121 435.182C466.926 435.292 466.658 435.267 466.373 435.103L440.556 420.197C440.084 419.925 439.848 419.139 440.182 418.951L445.282 416.079Z" fill="#060606"/>
<path d="M445.282 394.391C445.485 394.286 445.753 394.311 446.03 394.471L471.847 409.376C472.319 409.649 472.555 410.434 472.221 410.622L467.121 413.495C466.926 413.605 466.658 413.58 466.373 413.415L440.556 398.51C440.084 398.237 439.848 397.452 440.182 397.264L445.282 394.391Z" fill="#060606"/>
<path d="M467.121 417.789C466.926 417.454 466.658 417.169 466.373 417.005L440.556 402.099C440.084 401.827 439.848 402.34 440.182 402.913L445.282 411.675C445.477 412.01 445.745 412.295 446.03 412.459L471.847 427.365C472.319 427.637 472.555 427.124 472.221 426.551L467.121 417.789Z" fill="#060606"/>
<circle cx="41.9477" cy="41.9477" r="41.9477" transform="matrix(0.866025 0.5 0 1 419.396 349.904)" stroke="#060606" stroke-width="1.56596"/>
</g>
<path fill-rule="evenodd" clip-rule="evenodd" d="M829.297 178.468C823.867 174.134 820.597 166.388 820.597 155.872C820.597 132.134 837.263 103.268 857.821 91.3984C868.643 85.15 878.387 84.8575 885.189 89.445L885.19 89.443L885.266 89.4977C885.48 89.6437 885.692 89.7946 885.9 89.9503L892.404 94.5995L891.344 96.3193C893.715 100.606 895.045 106.185 895.045 112.89C895.045 136.628 878.379 165.494 857.821 177.364C850.683 181.485 844.015 183.015 838.351 182.263L837.195 184.138L829.276 178.502L829.297 178.468Z" fill="#ACF3A6"/>
<path d="M829.297 178.468L829.786 177.856L830.332 178.292L829.96 178.885L829.297 178.468ZM857.821 91.3984L857.429 90.7203L857.821 91.3984ZM885.189 89.445L885.852 89.8614L885.422 90.5465L884.751 90.0941L885.189 89.445ZM885.19 89.443L884.527 89.0266L884.969 88.3227L885.645 88.806L885.19 89.443ZM885.266 89.4977L884.825 90.1445L884.818 90.1397L884.811 90.1347L885.266 89.4977ZM885.9 89.9503L885.444 90.5873L885.437 90.5823L885.431 90.5772L885.9 89.9503ZM892.404 94.5995L892.86 93.9624L893.455 94.3878L893.071 95.0104L892.404 94.5995ZM891.344 96.3193L890.659 96.6983L890.437 96.2979L890.677 95.9083L891.344 96.3193ZM857.821 177.364L857.429 176.686L857.821 177.364ZM838.351 182.263L837.684 181.853L837.95 181.421L838.454 181.487L838.351 182.263ZM837.195 184.138L837.861 184.549L837.422 185.261L836.741 184.776L837.195 184.138ZM829.276 178.502L828.822 179.139L828.22 178.711L828.613 178.085L829.276 178.502ZM821.38 155.872C821.38 166.241 824.602 173.719 829.786 177.856L828.809 179.08C823.132 174.548 819.814 166.536 819.814 155.872H821.38ZM858.212 92.0765C848.08 97.9263 838.863 107.996 832.177 119.576C825.492 131.156 821.38 144.173 821.38 155.872H819.814C819.814 143.833 824.035 130.548 830.821 118.793C837.608 107.038 847.003 96.7399 857.429 90.7203L858.212 92.0765ZM884.751 90.0941C878.287 85.7346 868.885 85.9147 858.212 92.0765L857.429 90.7203C868.402 84.3853 878.487 83.9805 885.627 88.7959L884.751 90.0941ZM884.526 89.0286L884.527 89.0266L885.853 89.8594L885.852 89.8614L884.526 89.0286ZM885.645 88.806L885.722 88.8607L884.811 90.1347L884.735 90.08L885.645 88.806ZM885.431 90.5772C885.232 90.4283 885.03 90.2841 884.825 90.1445L885.708 88.8509C885.931 89.0034 886.152 89.1609 886.369 89.3233L885.431 90.5772ZM886.355 89.3133L892.86 93.9624L891.949 95.2365L885.444 90.5873L886.355 89.3133ZM893.071 95.0104L892.01 96.7302L890.677 95.9083L891.738 94.1885L893.071 95.0104ZM894.262 112.89C894.262 106.284 892.952 100.843 890.659 96.6983L892.029 95.9402C894.479 100.369 895.828 106.085 895.828 112.89H894.262ZM857.429 176.686C867.561 170.836 876.778 160.766 883.464 149.186C890.15 137.606 894.262 124.589 894.262 112.89H895.828C895.828 124.929 891.607 138.214 884.82 149.969C878.034 161.724 868.638 172.022 858.212 178.042L857.429 176.686ZM838.454 181.487C843.901 182.21 850.395 180.747 857.429 176.686L858.212 178.042C850.972 182.222 844.13 183.82 838.248 183.04L838.454 181.487ZM839.017 182.674L837.861 184.549L836.528 183.727L837.684 181.853L839.017 182.674ZM836.741 184.776L828.822 179.139L829.73 177.864L837.649 183.5L836.741 184.776ZM828.613 178.085L828.634 178.052L829.96 178.885L829.939 178.918L828.613 178.085Z" fill="#060606"/>
<mask id="mask9_471_7581" style="mask-type:alpha" maskUnits="userSpaceOnUse" x="819" y="85" width="77" height="101">
<path fill-rule="evenodd" clip-rule="evenodd" d="M829.293 178.464C823.863 174.13 820.593 166.384 820.593 155.869C820.593 132.13 837.259 103.264 857.817 91.3945C868.639 85.1461 878.383 84.8536 885.185 89.441L885.186 89.4387L885.277 89.5038C885.481 89.6434 885.683 89.7874 885.882 89.9358L892.401 94.5952L891.34 96.3152C893.711 100.602 895.041 106.181 895.041 112.886C895.041 136.625 878.375 165.491 857.817 177.36C850.679 181.481 844.011 183.011 838.347 182.26L837.191 184.134L829.272 178.497L829.293 178.464Z" fill="#B0F127"/>
<path d="M829.293 178.464L829.782 177.852L830.328 178.288L829.956 178.88L829.293 178.464ZM857.817 91.3945L857.425 90.7164L857.817 91.3945ZM885.185 89.441L885.848 89.8574L885.418 90.5425L884.747 90.0901L885.185 89.441ZM885.186 89.4387L884.523 89.0223L884.965 88.3184L885.641 88.8017L885.186 89.4387ZM885.277 89.5038L884.835 90.1501L884.828 90.1455L884.822 90.1408L885.277 89.5038ZM885.882 89.9358L885.426 90.5728L885.42 90.5681L885.413 90.5632L885.882 89.9358ZM892.401 94.5952L892.856 93.9582L893.451 94.3835L893.067 95.0061L892.401 94.5952ZM891.34 96.3152L890.655 96.6943L890.433 96.2938L890.673 95.9043L891.34 96.3152ZM895.041 112.886H894.258H895.041ZM857.817 177.36L858.208 178.038L857.817 177.36ZM838.347 182.26L837.68 181.849L837.946 181.417L838.45 181.483L838.347 182.26ZM837.191 184.134L837.857 184.545L837.418 185.257L836.737 184.772L837.191 184.134ZM829.272 178.497L828.818 179.135L828.217 178.707L828.609 178.081L829.272 178.497ZM821.376 155.869C821.376 166.237 824.598 173.715 829.782 177.852L828.805 179.076C823.128 174.544 819.81 166.532 819.81 155.869H821.376ZM858.208 92.0726C848.076 97.9224 838.859 107.992 832.174 119.572C825.488 131.152 821.376 144.169 821.376 155.869H819.81C819.81 143.829 824.031 130.544 830.817 118.789C837.604 107.034 846.999 96.736 857.425 90.7164L858.208 92.0726ZM884.747 90.0901C878.283 85.7306 868.881 85.9108 858.208 92.0726L857.425 90.7164C868.398 84.3815 878.483 83.9766 885.623 88.7919L884.747 90.0901ZM884.522 89.0246L884.523 89.0223L885.849 89.8551L885.848 89.8574L884.522 89.0246ZM885.641 88.8017L885.732 88.8668L884.822 90.1408L884.731 90.0757L885.641 88.8017ZM885.413 90.5632C885.223 90.4213 885.03 90.2836 884.835 90.1501L885.719 88.8574C885.932 89.0031 886.143 89.1535 886.35 89.3084L885.413 90.5632ZM886.337 89.2988L892.856 93.9582L891.945 95.2322L885.426 90.5728L886.337 89.2988ZM893.067 95.0061L892.006 96.7262L890.673 95.9043L891.734 94.1842L893.067 95.0061ZM894.258 112.886C894.258 106.28 892.948 100.839 890.655 96.6943L892.025 95.9362C894.475 100.365 895.824 106.081 895.824 112.886H894.258ZM857.425 176.682C867.558 170.832 876.775 160.762 883.46 149.182C890.146 137.602 894.258 124.585 894.258 112.886H895.824C895.824 124.925 891.603 138.21 884.816 149.965C878.03 161.72 868.635 172.018 858.208 178.038L857.425 176.682ZM838.45 181.483C843.897 182.206 850.391 180.743 857.425 176.682L858.208 178.038C850.968 182.218 844.126 183.816 838.244 183.036L838.45 181.483ZM839.013 182.671L837.857 184.545L836.524 183.723L837.68 181.849L839.013 182.671ZM836.737 184.772L828.818 179.135L829.727 177.859L837.645 183.496L836.737 184.772ZM828.609 178.081L828.63 178.048L829.956 178.88L829.936 178.914L828.609 178.081Z" fill="#060606"/>
</mask>
<g mask="url(#mask9_471_7581)">
<rect width="90.926" height="39.0965" transform="matrix(-0.866025 -0.5 -2.84138e-08 1 854.877 177.609)" fill="#ACF3A6"/>
</g>
<path d="M829.297 178.468L829.786 177.856L830.332 178.292L829.96 178.885L829.297 178.468ZM857.821 91.3984L857.429 90.7203L857.821 91.3984ZM885.189 89.445L885.852 89.8614L885.422 90.5465L884.751 90.0941L885.189 89.445ZM885.19 89.443L884.527 89.0266L884.969 88.3227L885.645 88.806L885.19 89.443ZM885.266 89.4977L884.825 90.1445L884.818 90.1397L884.811 90.1347L885.266 89.4977ZM885.9 89.9503L885.444 90.5873L885.437 90.5823L885.431 90.5772L885.9 89.9503ZM892.404 94.5995L892.86 93.9624L893.455 94.3878L893.071 95.0104L892.404 94.5995ZM891.344 96.3193L890.659 96.6983L890.437 96.2979L890.677 95.9083L891.344 96.3193ZM857.821 177.364L857.429 176.686L857.821 177.364ZM838.351 182.263L837.684 181.853L837.95 181.421L838.454 181.487L838.351 182.263ZM837.195 184.138L837.861 184.549L837.422 185.261L836.741 184.776L837.195 184.138ZM829.276 178.502L828.822 179.139L828.22 178.711L828.613 178.085L829.276 178.502ZM821.38 155.872C821.38 166.241 824.602 173.719 829.786 177.856L828.809 179.08C823.132 174.548 819.814 166.536 819.814 155.872H821.38ZM858.212 92.0765C848.08 97.9263 838.863 107.996 832.177 119.576C825.492 131.156 821.38 144.173 821.38 155.872H819.814C819.814 143.833 824.035 130.548 830.821 118.793C837.608 107.038 847.003 96.7399 857.429 90.7203L858.212 92.0765ZM884.751 90.0941C878.287 85.7346 868.885 85.9147 858.212 92.0765L857.429 90.7203C868.402 84.3853 878.487 83.9805 885.627 88.7959L884.751 90.0941ZM884.526 89.0286L884.527 89.0266L885.853 89.8594L885.852 89.8614L884.526 89.0286ZM885.645 88.806L885.722 88.8607L884.811 90.1347L884.735 90.08L885.645 88.806ZM885.431 90.5772C885.232 90.4283 885.03 90.2841 884.825 90.1445L885.708 88.8509C885.931 89.0034 886.152 89.1609 886.369 89.3233L885.431 90.5772ZM886.355 89.3133L892.86 93.9624L891.949 95.2365L885.444 90.5873L886.355 89.3133ZM893.071 95.0104L892.01 96.7302L890.677 95.9083L891.738 94.1885L893.071 95.0104ZM894.262 112.89C894.262 106.284 892.952 100.843 890.659 96.6983L892.029 95.9402C894.479 100.369 895.828 106.085 895.828 112.89H894.262ZM857.429 176.686C867.561 170.836 876.778 160.766 883.464 149.186C890.15 137.606 894.262 124.589 894.262 112.89H895.828C895.828 124.929 891.607 138.214 884.82 149.969C878.034 161.724 868.638 172.022 858.212 178.042L857.429 176.686ZM838.454 181.487C843.901 182.21 850.395 180.747 857.429 176.686L858.212 178.042C850.972 182.222 844.13 183.82 838.248 183.04L838.454 181.487ZM839.017 182.674L837.861 184.549L836.528 183.727L837.684 181.853L839.017 182.674ZM836.741 184.776L828.822 179.139L829.73 177.864L837.649 183.5L836.741 184.776ZM828.613 178.085L828.634 178.052L829.96 178.885L829.939 178.918L828.613 178.085Z" fill="#060606"/>
<ellipse cx="42.9827" cy="42.9827" rx="42.9827" ry="42.9827" transform="matrix(-0.866025 0.5 2.84138e-08 1 901.896 74.7871)" fill="white" stroke="#060606" stroke-width="1.56596"/>
<mask id="mask10_471_7581" style="mask-type:alpha" maskUnits="userSpaceOnUse" x="826" y="90" width="77" height="99">
<ellipse cx="42.9827" cy="42.9827" rx="42.9827" ry="42.9827" transform="matrix(-0.866025 0.5 2.84138e-08 1 901.896 74.7871)" fill="#B0F127" stroke="#060606" stroke-width="1.56596"/>
</mask>
<g mask="url(#mask10_471_7581)">
<ellipse cx="42.9827" cy="42.9827" rx="42.9827" ry="42.9827" transform="matrix(-0.866025 0.5 2.84138e-08 1 901.896 74.7871)" stroke="#060606" stroke-width="1.56596"/>
<path d="M864.676 117.451L864.93 118.299L864.93 147.139L864.676 147.577L853.082 146.358L864.676 117.451Z" fill="#060606"/>
<path d="M864.674 117.45L876.268 132.969L864.674 147.576L864.674 133.578L864.674 117.45Z" fill="#060606"/>
<path d="M864.676 150.115L864.818 150.233L864.818 160.507L864.676 161.071L853.075 148.903L864.676 150.115Z" fill="#060606"/>
<path d="M864.676 161.065L864.676 150.109L876.27 135.506L864.676 161.065Z" fill="#060606"/>
<path d="M864.676 147.58L853.082 146.361L864.676 133.582L864.676 147.58Z" fill="#060606"/>
<path d="M876.27 132.97L864.676 147.577L864.676 133.578L876.27 132.97Z" fill="#060606"/>
</g>
</g>
<circle cx="217.665" cy="433.149" r="11.2049" fill="#ACF3A6" stroke="#060606" stroke-width="2.08795"/>
<circle cx="181.647" cy="184.118" r="11.2049" fill="#ACF3A6" stroke="#060606" stroke-width="2.08795"/>
<circle cx="709.343" cy="286.727" r="11.2049" fill="#ACF3A6" stroke="#060606" stroke-width="2.08795"/>
<circle cx="890.374" cy="400.575" r="11.2049" fill="#ACF3A6" stroke="#060606" stroke-width="2.08795"/>
<circle cx="1160.38" cy="448.692" r="11.2049" fill="#ACF3A6" stroke="#060606" stroke-width="2.08795"/>
<circle cx="726.046" cy="58.0926" r="11.2049" fill="#ACF3A6" stroke="#060606" stroke-width="2.08795"/>
<path d="M1020.17 89.2359L1020.16 89.9998L1034.63 90.0029L1034.83 74.9792C1034.85 73.5787 1037.09 73.0699 1037.82 74.3432L1039.42 77.2719C1041.61 81.2193 1042.75 85.1665 1042.7 89.2407L1042.69 90.0047L1057.16 90.0078L1057.35 75.366C1057.37 73.9655 1059.62 73.4567 1060.35 74.73L1061.95 77.7861C1063.99 81.4788 1064.98 85.4259 1064.93 89.2455L1064.92 90.0095L1079.39 90.0126L1079.59 75.3708L1077.22 73.7151C1067.62 66.5831 1062.65 58.3063 1062.76 49.6485L1062.77 49.0119L1048.3 49.0088L1048.11 63.6506C1048.09 65.0511 1045.84 65.5599 1045.12 64.2865L1043.51 61.2305C1041.47 57.5377 1040.48 53.5906 1040.53 49.771L1040.54 49.1344L1026.07 49.1313L1025.87 64.0277C1025.85 65.4282 1023.61 65.937 1022.88 64.6637L1021.28 61.735C1019.09 57.7876 1017.95 53.8404 1018 49.7662L1018.01 49.1296L1003.54 49.1264L1003.34 63.7682L1005.71 65.4239C1015.32 72.3013 1020.28 80.7054 1020.17 89.2359Z" fill="#ACF3A6"/>
<path d="M1098.7 89V50.9442H1104.43L1117.6 77.9004L1130.76 50.9442H1136.49V89H1130.55V64.6073L1118.86 89H1116.33L1104.67 64.6073V89H1098.7ZM1151.9 89.7928C1149.84 89.7928 1148.09 89.4052 1146.66 88.63C1145.24 87.8372 1144.15 86.7889 1143.41 85.4851C1142.69 84.1814 1142.33 82.7455 1142.33 81.1774C1142.33 79.8032 1142.56 78.5699 1143.02 77.4775C1143.48 76.3676 1144.18 75.4162 1145.13 74.6234C1146.08 73.8129 1147.32 73.1522 1148.83 72.6413C1149.98 72.2713 1151.32 71.9366 1152.85 71.637C1154.4 71.3375 1156.07 71.0644 1157.87 70.8178C1159.68 70.5535 1161.58 70.2716 1163.55 69.9721L1161.28 71.2671C1161.3 69.2938 1160.86 67.8403 1159.96 66.9065C1159.06 65.9727 1157.54 65.5058 1155.41 65.5058C1154.13 65.5058 1152.88 65.8053 1151.69 66.4044C1150.49 67.0034 1149.65 68.0341 1149.18 69.4964L1143.36 67.6729C1144.07 65.2592 1145.4 63.3211 1147.38 61.8588C1149.37 60.3965 1152.05 59.6653 1155.41 59.6653C1157.95 59.6653 1160.18 60.0794 1162.1 60.9074C1164.04 61.7355 1165.47 63.0921 1166.41 64.9773C1166.92 65.9815 1167.23 67.0122 1167.33 68.0693C1167.44 69.1088 1167.49 70.2452 1167.49 71.4785V89H1161.91V82.8159L1162.84 83.8202C1161.55 85.8815 1160.05 87.3967 1158.32 88.3657C1156.61 89.3171 1154.47 89.7928 1151.9 89.7928ZM1153.17 84.7187C1154.61 84.7187 1155.84 84.4633 1156.87 83.9523C1157.89 83.4414 1158.7 82.8159 1159.3 82.076C1159.91 81.336 1160.33 80.6401 1160.54 79.9882C1160.87 79.1777 1161.06 78.2528 1161.09 77.2133C1161.15 76.1562 1161.17 75.3017 1161.17 74.6498L1163.13 75.2312C1161.21 75.5307 1159.56 75.795 1158.19 76.024C1156.81 76.2531 1155.63 76.4733 1154.65 76.6847C1153.66 76.8785 1152.79 77.0988 1152.03 77.3454C1151.29 77.6097 1150.66 77.918 1150.15 78.2704C1149.64 78.6227 1149.25 79.028 1148.96 79.486C1148.7 79.9441 1148.57 80.4815 1148.57 81.0981C1148.57 81.8029 1148.74 82.4283 1149.1 82.9745C1149.45 83.5031 1149.96 83.9259 1150.63 84.243C1151.32 84.5602 1152.16 84.7187 1153.17 84.7187ZM1171.73 89V88.1279L1186.84 66.0344H1173.26V60.4581H1196.75V61.3567L1181.69 83.4238H1196.12V89H1171.73ZM1213.41 89.7928C1210.52 89.7928 1207.99 89.1674 1205.8 87.9165C1203.62 86.6656 1201.91 84.9301 1200.67 82.7102C1199.46 80.4903 1198.85 77.9356 1198.85 75.0462C1198.85 71.9277 1199.45 69.2233 1200.65 66.9329C1201.85 64.6249 1203.51 62.8366 1205.64 61.5681C1207.77 60.2996 1210.24 59.6653 1213.04 59.6653C1216 59.6653 1218.51 60.3612 1220.57 61.7531C1222.65 63.1273 1224.19 65.0742 1225.2 67.5936C1226.2 70.113 1226.58 73.0817 1226.34 76.4997H1220.02V74.1741C1220 71.0732 1219.46 68.8093 1218.38 67.3822C1217.31 65.9551 1215.61 65.2415 1213.31 65.2415C1210.7 65.2415 1208.76 66.052 1207.49 67.6729C1206.22 69.2762 1205.59 71.6282 1205.59 74.7291C1205.59 77.6185 1206.22 79.856 1207.49 81.4417C1208.76 83.0274 1210.61 83.8202 1213.04 83.8202C1214.61 83.8202 1215.96 83.4766 1217.09 82.7895C1218.23 82.0848 1219.11 81.0717 1219.73 79.7503L1226.02 81.6531C1224.93 84.2254 1223.23 86.2251 1220.94 87.6522C1218.67 89.0793 1216.16 89.7928 1213.41 89.7928ZM1203.58 76.4997V71.6899H1223.22V76.4997H1203.58ZM1251.2 89V75.2576C1251.2 74.3591 1251.14 73.3636 1251.01 72.2713C1250.89 71.179 1250.6 70.1307 1250.14 69.1264C1249.7 68.1045 1249.03 67.2677 1248.13 66.6158C1247.25 65.9639 1246.05 65.638 1244.54 65.638C1243.73 65.638 1242.93 65.7701 1242.13 66.0344C1241.34 66.2987 1240.62 66.7567 1239.97 67.4086C1239.33 68.0429 1238.82 68.9238 1238.43 70.0514C1238.05 71.1613 1237.85 72.5884 1237.85 74.3327L1234.07 72.7206C1234.07 70.2892 1234.54 68.0869 1235.47 66.1137C1236.43 64.1404 1237.82 62.5724 1239.65 61.4095C1241.48 60.2291 1243.74 59.6389 1246.42 59.6389C1248.53 59.6389 1250.27 59.9913 1251.65 60.696C1253.02 61.4007 1254.11 62.2993 1254.93 63.3916C1255.74 64.484 1256.33 65.6468 1256.72 66.8801C1257.11 68.1134 1257.36 69.285 1257.46 70.3949C1257.59 71.4873 1257.65 72.377 1257.65 73.0641V89H1251.2ZM1231.4 89V60.4581H1237.09V69.3114H1237.85V89H1231.4ZM1275.13 89V50.9442H1298.04V57.3133H1281.49V66.8008H1294.87V73.1434H1281.49V89H1275.13ZM1303.32 56.124V50.2835H1309.69V56.124H1303.32ZM1303.32 89V60.4581H1309.69V89H1303.32ZM1337.35 89V75.2576C1337.35 74.3591 1337.29 73.3636 1337.16 72.2713C1337.04 71.179 1336.75 70.1307 1336.29 69.1264C1335.85 68.1045 1335.18 67.2677 1334.28 66.6158C1333.4 65.9639 1332.2 65.638 1330.69 65.638C1329.88 65.638 1329.07 65.7701 1328.28 66.0344C1327.49 66.2987 1326.77 66.7567 1326.12 67.4086C1325.48 68.0429 1324.97 68.9238 1324.58 70.0514C1324.19 71.1613 1324 72.5884 1324 74.3327L1320.22 72.7206C1320.22 70.2892 1320.69 68.0869 1321.62 66.1137C1322.57 64.1404 1323.97 62.5724 1325.8 61.4095C1327.63 60.2291 1329.89 59.6389 1332.56 59.6389C1334.68 59.6389 1336.42 59.9913 1337.8 60.696C1339.17 61.4007 1340.26 62.2993 1341.07 63.3916C1341.88 64.484 1342.48 65.6468 1342.87 66.8801C1343.26 68.1134 1343.5 69.285 1343.61 70.3949C1343.73 71.4873 1343.8 72.377 1343.8 73.0641V89H1337.35ZM1317.55 89V60.4581H1323.23V69.3114H1324V89H1317.55ZM1358.67 89.7928C1356.61 89.7928 1354.87 89.4052 1353.44 88.63C1352.01 87.8372 1350.93 86.7889 1350.19 85.4851C1349.47 84.1814 1349.11 82.7455 1349.11 81.1774C1349.11 79.8032 1349.33 78.5699 1349.79 77.4775C1350.25 76.3676 1350.96 75.4162 1351.91 74.6234C1352.86 73.8129 1354.09 73.1522 1355.61 72.6413C1356.75 72.2713 1358.09 71.9366 1359.62 71.637C1361.17 71.3375 1362.85 71.0644 1364.65 70.8178C1366.46 70.5535 1368.35 70.2716 1370.33 69.9721L1368.05 71.2671C1368.07 69.2938 1367.63 67.8403 1366.73 66.9065C1365.83 65.9727 1364.32 65.5058 1362.19 65.5058C1360.9 65.5058 1359.66 65.8053 1358.46 66.4044C1357.26 67.0034 1356.43 68.0341 1355.95 69.4964L1350.14 67.6729C1350.84 65.2592 1352.18 63.3211 1354.15 61.8588C1356.14 60.3965 1358.82 59.6653 1362.19 59.6653C1364.72 59.6653 1366.95 60.0794 1368.87 60.9074C1370.81 61.7355 1372.25 63.0921 1373.18 64.9773C1373.69 65.9815 1374 67.0122 1374.11 68.0693C1374.21 69.1088 1374.27 70.2452 1374.27 71.4785V89H1368.69V82.8159L1369.61 83.8202C1368.33 85.8815 1366.82 87.3967 1365.09 88.3657C1363.39 89.3171 1361.24 89.7928 1358.67 89.7928ZM1359.94 84.7187C1361.39 84.7187 1362.62 84.4633 1363.64 83.9523C1364.66 83.4414 1365.47 82.8159 1366.07 82.076C1366.69 81.336 1367.1 80.6401 1367.31 79.9882C1367.65 79.1777 1367.83 78.2528 1367.87 77.2133C1367.92 76.1562 1367.95 75.3017 1367.95 74.6498L1369.9 75.2312C1367.98 75.5307 1366.34 75.795 1364.96 76.024C1363.59 76.2531 1362.41 76.4733 1361.42 76.6847C1360.43 76.8785 1359.56 77.0988 1358.8 77.3454C1358.06 77.6097 1357.44 77.918 1356.93 78.2704C1356.42 78.6227 1356.02 79.028 1355.74 79.486C1355.47 79.9441 1355.34 80.4815 1355.34 81.0981C1355.34 81.8029 1355.52 82.4283 1355.87 82.9745C1356.22 83.5031 1356.73 83.9259 1357.4 84.243C1358.09 84.5602 1358.94 84.7187 1359.94 84.7187ZM1400.89 89V75.2576C1400.89 74.3591 1400.83 73.3636 1400.7 72.2713C1400.58 71.179 1400.29 70.1307 1399.83 69.1264C1399.39 68.1045 1398.72 67.2677 1397.82 66.6158C1396.94 65.9639 1395.74 65.638 1394.23 65.638C1393.42 65.638 1392.61 65.7701 1391.82 66.0344C1391.03 66.2987 1390.31 66.7567 1389.65 67.4086C1389.02 68.0429 1388.51 68.9238 1388.12 70.0514C1387.73 71.1613 1387.54 72.5884 1387.54 74.3327L1383.76 72.7206C1383.76 70.2892 1384.23 68.0869 1385.16 66.1137C1386.11 64.1404 1387.51 62.5724 1389.34 61.4095C1391.17 60.2291 1393.43 59.6389 1396.1 59.6389C1398.22 59.6389 1399.96 59.9913 1401.34 60.696C1402.71 61.4007 1403.8 62.2993 1404.61 63.3916C1405.42 64.484 1406.02 65.6468 1406.41 66.8801C1406.8 68.1134 1407.04 69.285 1407.15 70.3949C1407.27 71.4873 1407.34 72.377 1407.34 73.0641V89H1400.89ZM1381.09 89V60.4581H1386.77V69.3114H1387.54V89H1381.09ZM1426.16 89.7928C1423.22 89.7928 1420.71 89.1409 1418.63 87.8372C1416.55 86.5158 1414.96 84.7187 1413.85 82.4459C1412.75 80.1732 1412.2 77.6009 1412.18 74.7291C1412.2 71.8044 1412.77 69.2145 1413.9 66.9593C1415.04 64.6866 1416.67 62.9071 1418.76 61.621C1420.86 60.3172 1423.35 59.6653 1426.24 59.6653C1429.48 59.6653 1432.22 60.4846 1434.46 62.1231C1436.71 63.744 1438.19 65.9639 1438.87 68.7829L1432.53 70.5007C1432.04 68.9678 1431.22 67.7786 1430.07 66.9329C1428.93 66.0696 1427.62 65.638 1426.16 65.638C1424.51 65.638 1423.14 66.0344 1422.07 66.8272C1420.99 67.6024 1420.2 68.6771 1419.69 70.0514C1419.18 71.4256 1418.92 72.9848 1418.92 74.7291C1418.92 77.4423 1419.53 79.6358 1420.74 81.3096C1421.96 82.9833 1423.77 83.8202 1426.16 83.8202C1427.85 83.8202 1429.18 83.4326 1430.15 82.6574C1431.14 81.8822 1431.88 80.7634 1432.37 79.3011L1438.87 80.7546C1437.99 83.6616 1436.45 85.8992 1434.25 87.4672C1432.05 89.0176 1429.35 89.7928 1426.16 89.7928ZM1456.37 89.7928C1453.48 89.7928 1450.94 89.1674 1448.76 87.9165C1446.57 86.6656 1444.87 84.9301 1443.63 82.7102C1442.42 80.4903 1441.81 77.9356 1441.81 75.0462C1441.81 71.9277 1442.41 69.2233 1443.61 66.9329C1444.8 64.6249 1446.47 62.8366 1448.6 61.5681C1450.73 60.2996 1453.2 59.6653 1456 59.6653C1458.96 59.6653 1461.47 60.3612 1463.53 61.7531C1465.61 63.1273 1467.15 65.0742 1468.16 67.5936C1469.16 70.113 1469.54 73.0817 1469.29 76.4997H1462.98V74.1741C1462.96 71.0732 1462.41 68.8093 1461.34 67.3822C1460.26 65.9551 1458.57 65.2415 1456.27 65.2415C1453.66 65.2415 1451.72 66.052 1450.45 67.6729C1449.18 69.2762 1448.55 71.6282 1448.55 74.7291C1448.55 77.6185 1449.18 79.856 1450.45 81.4417C1451.72 83.0274 1453.57 83.8202 1456 83.8202C1457.57 83.8202 1458.92 83.4766 1460.04 82.7895C1461.19 82.0848 1462.07 81.0717 1462.69 79.7503L1468.98 81.6531C1467.88 84.2254 1466.19 86.2251 1463.9 87.6522C1461.63 89.0793 1459.12 89.7928 1456.37 89.7928ZM1446.54 76.4997V71.6899H1466.18V76.4997H1446.54Z" fill="white"/>
</g>
<defs>
<clipPath id="clip0_471_7581">
<rect width="1500" height="500" fill="white"/>
</clipPath>
</defs>
</svg>
